<svg width="22" height="22" viewBox="0 0 22 22" fill="none" xmlns="http://www.w3.org/2000/svg">
<g clip-path="url(#clip0_4126_8208)">
<path d="M14.2 6.20015C14.4122 6.20015 14.6157 6.28443 14.7657 6.43446C14.9157 6.58449 15 6.78797 15 7.00015C15 7.21232 14.9157 7.4158 14.7657 7.56583C14.6157 7.71586 14.4122 7.80015 14.2 7.80015H7.8C7.58783 7.80015 7.38434 7.71586 7.23431 7.56583C7.08429 7.4158 7 7.21232 7 7.00015C7 6.78797 7.08429 6.58449 7.23431 6.43446C7.38434 6.28443 7.58783 6.20015 7.8 6.20015H14.2ZM20.3656 20.3657C20.2156 20.5157 20.0121 20.6 19.8 20.6C19.5879 20.6 19.3844 20.5157 19.2344 20.3657L17.3088 18.4401C16.7385 18.8041 16.0765 18.9983 15.4 19.0001C14.688 19.0001 13.992 18.789 13.3999 18.3934C12.8079 17.9979 12.3465 17.4356 12.074 16.7778C11.8016 16.12 11.7303 15.3962 11.8692 14.6978C12.0081 13.9995 12.3509 13.358 12.8544 12.8546C13.3579 12.3511 13.9993 12.0082 14.6977 11.8693C15.396 11.7304 16.1198 11.8017 16.7777 12.0742C17.4355 12.3467 17.9977 12.8081 18.3933 13.4001C18.7889 13.9921 19 14.6881 19 15.4001C18.9982 16.0767 18.804 16.7387 18.44 17.3089L20.3656 19.2345C20.5156 19.3846 20.5998 19.588 20.5998 19.8001C20.5998 20.0123 20.5156 20.2157 20.3656 20.3657ZM15.4 17.4001C15.7956 17.4001 16.1822 17.2828 16.5111 17.0631C16.84 16.8433 17.0964 16.531 17.2478 16.1655C17.3991 15.8001 17.4387 15.3979 17.3616 15.01C17.2844 14.622 17.0939 14.2656 16.8142 13.9859C16.5345 13.7062 16.1781 13.5157 15.7902 13.4386C15.4022 13.3614 15.0001 13.401 14.6346 13.5524C14.2692 13.7038 13.9568 13.9601 13.7371 14.289C13.5173 14.6179 13.4 15.0046 13.4 15.4001C13.4 15.9306 13.6107 16.4393 13.9858 16.8144C14.3609 17.1894 14.8696 17.4001 15.4 17.4001ZM11.8 19.0001H7C6.36348 19.0001 5.75303 18.7473 5.30294 18.2972C4.85286 17.8471 4.6 17.2367 4.6 16.6001V5.40015C4.6 4.76363 4.85286 4.15318 5.30294 3.70309C5.75303 3.253 6.36348 3.00015 7 3.00015H16.6C16.8122 3.00015 17.0157 3.08443 17.1657 3.23446C17.3157 3.38449 17.4 3.58797 17.4 3.80015V10.2001C17.4 10.4123 17.4843 10.6158 17.6343 10.7658C17.7843 10.9159 17.9878 11.0001 18.2 11.0001C18.4122 11.0001 18.6157 10.9159 18.7657 10.7658C18.9157 10.6158 19 10.4123 19 10.2001V3.80015C19 3.16363 18.7471 2.55318 18.2971 2.10309C17.847 1.653 17.2365 1.40015 16.6 1.40015L7 1.40015C5.93952 1.40142 4.92285 1.82325 4.17298 2.57312C3.42311 3.32299 3.00127 4.33967 3 5.40015V16.6001C3.00127 17.6606 3.42311 18.6773 4.17298 19.4272C4.92285 20.177 5.93952 20.5989 7 20.6001H11.8C12.0122 20.6001 12.2157 20.5159 12.3657 20.3658C12.5157 20.2158 12.6 20.0123 12.6 19.8001C12.6 19.588 12.5157 19.3845 12.3657 19.2345C12.2157 19.0844 12.0122 19.0001 11.8 19.0001Z" fill="#FFBE0A"/>
</g>
<defs>
<clipPath id="clip0_4126_8208">
<rect width="19.2" height="19.2" fill="white" transform="translate(1.40039 1.40015)"/>
</clipPath>
</defs>
</svg>
