<svg width="22" height="22" viewBox="0 0 22 22" fill="none" xmlns="http://www.w3.org/2000/svg">
<g clip-path="url(#clip0_4126_8205)">
<path d="M19.8972 8.65509L13.8292 2.58629C13.0782 1.83748 12.0609 1.41699 11.0004 1.41699C9.93987 1.41699 8.92261 1.83748 8.1716 2.58629L2.1036 8.65509C1.87994 8.87732 1.70262 9.14173 1.58191 9.433C1.4612 9.72427 1.3995 10.0366 1.4004 10.3519V18.2055C1.4004 18.842 1.65326 19.4525 2.10334 19.9026C2.55343 20.3526 3.16388 20.6055 3.8004 20.6055H18.2004C18.8369 20.6055 19.4474 20.3526 19.8975 19.9026C20.3475 19.4525 20.6004 18.842 20.6004 18.2055V10.3519C20.6013 10.0366 20.5396 9.72427 20.4189 9.433C20.2982 9.14173 20.1209 8.87732 19.8972 8.65509V8.65509ZM13.4004 19.0055H8.6004V15.8583C8.6004 15.2218 8.85326 14.6113 9.30334 14.1612C9.75343 13.7111 10.3639 13.4583 11.0004 13.4583C11.6369 13.4583 12.2474 13.7111 12.6975 14.1612C13.1475 14.6113 13.4004 15.2218 13.4004 15.8583V19.0055ZM19.0004 18.2055C19.0004 18.4177 18.9161 18.6212 18.7661 18.7712C18.6161 18.9212 18.4126 19.0055 18.2004 19.0055H15.0004V15.8583C15.0004 14.7974 14.579 13.78 13.8288 13.0299C13.0787 12.2797 12.0613 11.8583 11.0004 11.8583C9.93954 11.8583 8.92212 12.2797 8.17197 13.0299C7.42183 13.78 7.0004 14.7974 7.0004 15.8583V19.0055H3.8004C3.58823 19.0055 3.38474 18.9212 3.23472 18.7712C3.08469 18.6212 3.0004 18.4177 3.0004 18.2055V10.3519C3.00114 10.1399 3.08535 9.93668 3.2348 9.78629L9.3028 3.71989C9.75376 3.27104 10.3641 3.01905 11.0004 3.01905C11.6367 3.01905 12.247 3.27104 12.698 3.71989L18.766 9.78869C18.9149 9.93849 18.999 10.1407 19.0004 10.3519V18.2055Z" fill="#FFBE0A"/>
</g>
<defs>
<clipPath id="clip0_4126_8205">
<rect width="19.2" height="19.2" fill="white" transform="translate(1.40039 1.40015)"/>
</clipPath>
</defs>
</svg>
