<svg width="18" height="19" viewBox="0 0 18 19" fill="none" xmlns="http://www.w3.org/2000/svg">
<g clip-path="url(#clip0_393_35701)">
<path d="M8.7269 0.516534C10.2575 0.360672 10.6452 1.26387 11.6403 2.03918C12.2318 2.49877 12.9352 2.33092 13.6265 2.37888C15.0213 2.47479 16.0204 3.47391 16.1163 4.86867C16.1643 5.55605 15.9924 6.26343 16.456 6.8549C17.1194 7.70614 17.9147 8.06582 17.9947 9.3287C18.0866 10.7954 17.2074 11.1791 16.456 12.1422C15.9964 12.7337 16.1643 13.437 16.1163 14.1284C16.0204 15.5232 15.0213 16.5223 13.6265 16.6182C12.9392 16.6662 12.2318 16.4943 11.6403 16.9579C10.7851 17.6253 10.4334 18.4166 9.16651 18.4966C7.69981 18.5885 7.31615 17.7093 6.35301 16.9579C5.76153 16.4983 5.05816 16.6662 4.36677 16.6182C2.97201 16.5223 1.9689 15.5192 1.87698 14.1284C1.82903 13.445 1.99688 12.7297 1.53729 12.1422C0.877872 11.291 0.082579 10.9313 0.0066465 9.6684C-0.0852718 8.2017 0.793947 7.81804 1.54528 6.8549C2.00487 6.26742 1.83702 5.55605 1.88498 4.86867C1.98089 3.47391 2.984 2.47479 4.37476 2.37888C5.06215 2.33092 5.76952 2.50277 6.361 2.03918C7.18826 1.39176 7.52397 0.636427 8.73489 0.516534H8.7269ZM12.1718 6.51121C12.1039 6.52319 12.016 6.55916 11.96 6.59913L7.81171 10.9952C7.75976 11.0032 7.66784 10.8873 7.62787 10.8474C7.21624 10.4117 6.82858 9.94415 6.41295 9.51653C6.30505 9.40463 6.09324 9.16485 5.96135 9.1049C5.41784 8.86112 4.90629 9.41263 5.16606 9.93616L7.40407 12.346C7.9356 12.7497 8.25132 12.2901 8.60301 11.9344C10.0377 10.4757 11.3646 8.90108 12.7953 7.43439C13.075 6.9628 12.7154 6.41929 12.1678 6.50721L12.1718 6.51121Z" fill="#FFBE0A"/>
<path d="M12.173 6.51059C12.7205 6.42267 13.0802 6.96619 12.8004 7.43777C11.3697 8.90047 10.0429 10.4791 8.60817 11.9378C8.25648 12.2934 7.94076 12.753 7.40923 12.3494L5.17122 9.93954C4.91145 9.41601 5.423 8.8645 5.96651 9.10828C6.0984 9.16823 6.30621 9.40801 6.41811 9.51991C6.83774 9.94753 7.2214 10.4151 7.63303 10.8507C7.669 10.8907 7.76492 11.0066 7.81687 10.9986L11.9652 6.60251C12.0211 6.56654 12.1091 6.52658 12.177 6.51459L12.173 6.51059Z" fill="white"/>
</g>
<defs>
<clipPath id="clip0_393_35701">
<rect width="18" height="18" fill="white" transform="translate(0 0.5)"/>
</clipPath>
</defs>
</svg>
