<svg width="18" height="19" viewBox="0 0 18 19" fill="none" xmlns="http://www.w3.org/2000/svg">
<path d="M1.09196 16.5C0.765124 16.5 0.523549 16.3611 0.367235 16.0833C0.210922 15.8056 0.210922 15.5278 0.367235 15.25L8.25396 1.91667C8.41027 1.63889 8.65895 1.5 9 1.5C9.34105 1.5 9.58973 1.63889 9.74604 1.91667L17.6328 15.25C17.7891 15.5278 17.7891 15.8056 17.6328 16.0833C17.4765 16.3611 17.2349 16.5 16.908 16.5H1.09196ZM9 7.33333C8.75842 7.33333 8.55607 7.41305 8.39294 7.5725C8.22923 7.7325 8.14738 7.93056 8.14738 8.16667V10.6667C8.14738 10.9028 8.22923 11.1006 8.39294 11.26C8.55607 11.42 8.75842 11.5 9 11.5C9.24158 11.5 9.44421 11.42 9.60792 11.26C9.77105 11.1006 9.85262 10.9028 9.85262 10.6667V8.16667C9.85262 7.93056 9.77105 7.7325 9.60792 7.5725C9.44421 7.41305 9.24158 7.33333 9 7.33333ZM9 14C9.24158 14 9.44421 13.92 9.60792 13.76C9.77105 13.6006 9.85262 13.4028 9.85262 13.1667C9.85262 12.9306 9.77105 12.7328 9.60792 12.5733C9.44421 12.4133 9.24158 12.3333 9 12.3333C8.75842 12.3333 8.55607 12.4133 8.39294 12.5733C8.22923 12.7328 8.14738 12.9306 8.14738 13.1667C8.14738 13.4028 8.22923 13.6006 8.39294 13.76C8.55607 13.92 8.75842 14 9 14Z" fill="#EF2562"/>
</svg>
