<svg width="18" height="19" viewBox="0 0 18 19" fill="none" xmlns="http://www.w3.org/2000/svg">
<g clip-path="url(#clip0_393_35709)">
<path d="M9.75 1.25V2.75C9.75 2.94891 9.67098 3.13968 9.53033 3.28033C9.38968 3.42098 9.19891 3.5 9 3.5C8.80109 3.5 8.61032 3.42098 8.46967 3.28033C8.32902 3.13968 8.25 2.94891 8.25 2.75V1.25C8.25 1.05109 8.32902 0.860322 8.46967 0.71967C8.61032 0.579018 8.80109 0.5 9 0.5C9.19891 0.5 9.38968 0.579018 9.53033 0.71967C9.67098 0.860322 9.75 1.05109 9.75 1.25ZM9 15.5C8.80109 15.5 8.61032 15.579 8.46967 15.7197C8.32902 15.8603 8.25 16.0511 8.25 16.25V17.75C8.25 17.9489 8.32902 18.1397 8.46967 18.2803C8.61032 18.421 8.80109 18.5 9 18.5C9.19891 18.5 9.38968 18.421 9.53033 18.2803C9.67098 18.1397 9.75 17.9489 9.75 17.75V16.25C9.75 16.0511 9.67098 15.8603 9.53033 15.7197C9.38968 15.579 9.19891 15.5 9 15.5ZM3 9.5C3 9.30109 2.92098 9.11032 2.78033 8.96967C2.63968 8.82902 2.44891 8.75 2.25 8.75H0.75C0.551088 8.75 0.360322 8.82902 0.21967 8.96967C0.0790176 9.11032 0 9.30109 0 9.5C0 9.69891 0.0790176 9.88968 0.21967 10.0303C0.360322 10.171 0.551088 10.25 0.75 10.25H2.25C2.44891 10.25 2.63968 10.171 2.78033 10.0303C2.92098 9.88968 3 9.69891 3 9.5ZM17.25 8.75H15.75C15.5511 8.75 15.3603 8.82902 15.2197 8.96967C15.079 9.11032 15 9.30109 15 9.5C15 9.69891 15.079 9.88968 15.2197 10.0303C15.3603 10.171 15.5511 10.25 15.75 10.25H17.25C17.4489 10.25 17.6397 10.171 17.7803 10.0303C17.921 9.88968 18 9.69891 18 9.5C18 9.30109 17.921 9.11032 17.7803 8.96967C17.6397 8.82902 17.4489 8.75 17.25 8.75ZM13.5135 1.7135C13.4283 1.66408 13.3341 1.63193 13.2365 1.61891C13.1388 1.60588 13.0395 1.61222 12.9443 1.63757C12.8491 1.66293 12.7598 1.70679 12.6816 1.76666C12.6033 1.82653 12.5376 1.90123 12.4882 1.9865L11.7382 3.28475C11.6387 3.45692 11.6117 3.66156 11.663 3.85368C11.7143 4.0458 11.8399 4.20967 12.012 4.30925C12.1258 4.37578 12.2552 4.41073 12.387 4.4105C12.5187 4.4105 12.648 4.37584 12.762 4.31001C12.876 4.24419 12.9707 4.14951 13.0365 4.0355L13.7865 2.73725C13.8858 2.56524 13.9129 2.36085 13.8617 2.16892C13.8105 1.97699 13.6853 1.81321 13.5135 1.7135ZM5.99025 14.6908C5.81817 14.5912 5.6136 14.564 5.42149 14.6152C5.22938 14.6664 5.06546 14.7917 4.96575 14.9637L4.21575 16.262C4.11617 16.4341 4.08899 16.6387 4.14019 16.8308C4.19138 17.0229 4.31675 17.1868 4.48875 17.2865C4.60254 17.353 4.73198 17.3879 4.86375 17.3878C4.99553 17.3879 5.12501 17.3533 5.23916 17.2875C5.35332 17.2216 5.44811 17.1269 5.514 17.0128L6.264 15.7145C6.36328 15.5424 6.39021 15.3379 6.33888 15.146C6.28756 14.9541 6.16217 14.7903 5.99025 14.6908ZM3.53625 5.46575L2.238 4.71575C2.06629 4.62334 1.86534 4.60145 1.67776 4.6547C1.49018 4.70796 1.33071 4.83218 1.23317 5.00102C1.13563 5.16987 1.10768 5.37006 1.15525 5.55917C1.20282 5.74827 1.32217 5.91141 1.488 6.014L2.78625 6.764C2.95796 6.85641 3.15891 6.8783 3.34649 6.82505C3.53407 6.77179 3.69354 6.64757 3.79108 6.47873C3.88862 6.30988 3.91657 6.10969 3.869 5.92058C3.82143 5.73148 3.70208 5.56834 3.53625 5.46575ZM16.5112 12.9882L15.213 12.2382C15.0413 12.1458 14.8403 12.1239 14.6528 12.1772C14.4652 12.2305 14.3057 12.3547 14.2082 12.5235C14.1106 12.6924 14.0827 12.8926 14.1303 13.0817C14.1778 13.2708 14.2972 13.4339 14.463 13.5365L15.7612 14.2865C15.875 14.353 16.0045 14.388 16.1362 14.3878C16.3013 14.3877 16.4618 14.3333 16.5928 14.2328C16.7238 14.1322 16.8179 13.9913 16.8607 13.8319C16.9034 13.6724 16.8923 13.5033 16.8291 13.3508C16.766 13.1982 16.6542 13.0708 16.5112 12.9882ZM5.51175 1.9865C5.40916 1.82067 5.24602 1.70132 5.05692 1.65375C4.86781 1.60618 4.66762 1.63413 4.49877 1.73167C4.32993 1.82921 4.20571 1.98868 4.15245 2.17626C4.0992 2.36384 4.1211 2.56479 4.2135 2.7365L4.9635 4.03475C5.02932 4.14876 5.124 4.24344 5.23801 4.30926C5.35202 4.37509 5.48135 4.40975 5.613 4.40975C5.74478 4.40998 5.87424 4.37503 5.988 4.3085C6.16013 4.20892 6.28566 4.04505 6.33699 3.85293C6.38833 3.66081 6.36126 3.45617 6.26175 3.284L5.51175 1.9865ZM13.0343 14.9615C12.9317 14.7957 12.7685 14.6763 12.5794 14.6287C12.3903 14.5812 12.1901 14.6091 12.0213 14.7067C11.8524 14.8042 11.7282 14.9637 11.675 15.1513C11.6217 15.3388 11.6436 15.5398 11.736 15.7115L12.486 17.0098C12.5886 17.1756 12.7517 17.2949 12.9408 17.3425C13.1299 17.3901 13.3301 17.3621 13.499 17.2646C13.6678 17.167 13.792 17.0076 13.8453 16.82C13.8986 16.6324 13.8767 16.4315 13.7843 16.2598L13.0343 14.9615ZM14.8403 6.8615C14.9719 6.86149 15.1012 6.82683 15.2153 6.761L16.5135 6.011C16.6793 5.90841 16.7987 5.74527 16.8462 5.55617C16.8938 5.36706 16.8659 5.16687 16.7683 4.99802C16.6708 4.82917 16.5113 4.70496 16.3237 4.6517C16.1362 4.59845 15.9352 4.62035 15.7635 4.71275L14.4653 5.46275C14.3226 5.54547 14.2113 5.67287 14.1484 5.82524C14.0854 5.97762 14.0745 6.14648 14.1172 6.30572C14.1598 6.46495 14.2538 6.60568 14.3845 6.70614C14.5152 6.80661 14.6754 6.86121 14.8403 6.8615ZM2.78475 12.236L1.4865 12.986C1.34353 13.0686 1.23179 13.196 1.16862 13.3485C1.10544 13.501 1.09436 13.6701 1.13709 13.8296C1.17982 13.9891 1.27397 14.13 1.40495 14.2305C1.53593 14.331 1.69641 14.3855 1.8615 14.3855C1.99328 14.3857 2.12274 14.3508 2.2365 14.2843L3.53475 13.5343C3.70058 13.4317 3.81993 13.2685 3.8675 13.0794C3.91507 12.8903 3.88712 12.6901 3.78958 12.5213C3.69204 12.3524 3.53257 12.2282 3.34499 12.175C3.15741 12.1217 2.95646 12.1436 2.78475 12.236Z" fill="#00B383"/>
</g>
<defs>
<clipPath id="clip0_393_35709">
<rect width="18" height="18" fill="white" transform="translate(0 0.5)"/>
</clipPath>
</defs>
</svg>
