<svg width="40" height="22" viewBox="0 0 40 22" fill="none" xmlns="http://www.w3.org/2000/svg">
<rect x="0.5" y="1" width="39" height="20" rx="10" fill="url(#paint0_linear_4117_8151)"/>
<rect x="0.5" y="1" width="39" height="20" rx="10" stroke="url(#paint1_linear_4117_8151)"/>
<path d="M11.816 6.932C12.92 6.932 13.724 7.172 14.228 7.652C14.74 8.124 14.996 8.776 14.996 9.608C14.996 9.984 14.94 10.344 14.828 10.688C14.716 11.024 14.528 11.328 14.264 11.6C14.008 11.864 13.668 12.072 13.244 12.224C12.82 12.376 12.296 12.452 11.672 12.452H10.892V15.5H9.08V6.932H11.816ZM11.72 8.42H10.892V10.964H11.492C11.836 10.964 12.132 10.92 12.38 10.832C12.628 10.744 12.82 10.604 12.956 10.412C13.092 10.22 13.16 9.972 13.16 9.668C13.16 9.244 13.044 8.932 12.812 8.732C12.58 8.524 12.216 8.42 11.72 8.42ZM18.5112 6.932C19.2872 6.932 19.9272 7.028 20.4312 7.22C20.9352 7.404 21.3112 7.688 21.5592 8.072C21.8072 8.448 21.9312 8.924 21.9312 9.5C21.9312 9.892 21.8552 10.236 21.7032 10.532C21.5592 10.82 21.3632 11.068 21.1152 11.276C20.8752 11.476 20.6152 11.64 20.3352 11.768L22.8552 15.5H20.8392L18.7992 12.212H17.8272V15.5H16.0152V6.932H18.5112ZM18.3792 8.42H17.8272V10.736H18.4152C18.8152 10.736 19.1392 10.692 19.3872 10.604C19.6352 10.516 19.8152 10.384 19.9272 10.208C20.0392 10.024 20.0952 9.804 20.0952 9.548C20.0952 9.276 20.0312 9.06 19.9032 8.9C19.7832 8.732 19.5952 8.612 19.3392 8.54C19.0912 8.46 18.7712 8.42 18.3792 8.42ZM31.113 11.204C31.113 11.868 31.029 12.472 30.861 13.016C30.701 13.552 30.453 14.016 30.117 14.408C29.789 14.8 29.365 15.1 28.845 15.308C28.333 15.516 27.729 15.62 27.033 15.62C26.337 15.62 25.729 15.516 25.209 15.308C24.697 15.092 24.273 14.792 23.937 14.408C23.609 14.016 23.361 13.548 23.193 13.004C23.033 12.46 22.953 11.856 22.953 11.192C22.953 10.304 23.097 9.532 23.385 8.876C23.681 8.22 24.129 7.712 24.729 7.352C25.337 6.984 26.109 6.8 27.045 6.8C27.973 6.8 28.737 6.984 29.337 7.352C29.937 7.712 30.381 8.224 30.669 8.888C30.965 9.544 31.113 10.316 31.113 11.204ZM24.861 11.204C24.861 11.804 24.937 12.32 25.089 12.752C25.241 13.184 25.477 13.516 25.797 13.748C26.117 13.98 26.529 14.096 27.033 14.096C27.553 14.096 27.969 13.98 28.281 13.748C28.601 13.516 28.833 13.184 28.977 12.752C29.129 12.32 29.205 11.804 29.205 11.204C29.205 10.3 29.037 9.592 28.701 9.08C28.365 8.568 27.813 8.312 27.045 8.312C26.533 8.312 26.117 8.428 25.797 8.66C25.477 8.892 25.241 9.224 25.089 9.656C24.937 10.088 24.861 10.604 24.861 11.204Z" fill="white"/>
<defs>
<linearGradient id="paint0_linear_4117_8151" x1="5.5" y1="0.5" x2="35.5" y2="21.5" gradientUnits="userSpaceOnUse">
<stop stop-color="#FFCF00"/>
<stop offset="1" stop-color="#E87016"/>
</linearGradient>
<linearGradient id="paint1_linear_4117_8151" x1="0" y1="0.5" x2="40" y2="21.5" gradientUnits="userSpaceOnUse">
<stop stop-color="#FCF6E9"/>
<stop offset="1" stop-color="#FFBE0A"/>
</linearGradient>
</defs>
</svg>
