<svg width="14" height="14" viewBox="0 0 14 14" fill="none" xmlns="http://www.w3.org/2000/svg">
<mask id="path-1-outside-1_4117_8107" maskUnits="userSpaceOnUse" x="1.09961" y="1.09961" width="12" height="12" fill="black">
<rect fill="white" x="1.09961" y="1.09961" width="12" height="12"/>
<path d="M6.71767 2.10048C7.93956 2.0779 9.03679 2.49653 10.0097 3.35634C10.9376 4.25404 11.438 5.31414 11.5097 6.53602C11.5813 7.75769 11.2057 8.87063 10.3837 9.87391L11.7978 11.288C11.8656 11.3635 11.8993 11.4487 11.8993 11.5429C11.8993 11.637 11.8635 11.72 11.7919 11.7919C11.7202 11.8638 11.6372 11.8995 11.5429 11.8993C11.4485 11.8991 11.3633 11.8653 11.288 11.7977L9.87392 10.3837C8.87078 11.2057 7.75808 11.5813 6.53603 11.5097C5.31386 11.438 4.25384 10.9375 3.35634 10.0097C2.49633 9.03667 2.07779 7.93877 2.10048 6.71669C2.12329 5.49476 2.58373 4.41657 3.48134 3.48134C4.41673 2.58366 5.49552 2.12317 6.71767 2.10048ZM6.80752 2.82509C5.67599 2.8553 4.7367 3.24335 3.99013 3.99012C3.24355 4.73692 2.85555 5.67622 2.82509 6.80751C2.85527 7.93904 3.24336 8.87831 3.99013 9.62489C4.73695 10.3714 5.67621 10.7604 6.80752 10.7909C7.93912 10.7607 8.87829 10.3717 9.6249 9.62489C10.3715 8.87805 10.7605 7.93887 10.7909 6.80751C10.7607 5.67598 10.3717 4.73669 9.6249 3.99012C8.87807 3.24369 7.93879 2.8555 6.80752 2.82509Z"/>
</mask>
<path d="M6.71767 2.10048C7.93956 2.0779 9.03679 2.49653 10.0097 3.35634C10.9376 4.25404 11.438 5.31414 11.5097 6.53602C11.5813 7.75769 11.2057 8.87063 10.3837 9.87391L11.7978 11.288C11.8656 11.3635 11.8993 11.4487 11.8993 11.5429C11.8993 11.637 11.8635 11.72 11.7919 11.7919C11.7202 11.8638 11.6372 11.8995 11.5429 11.8993C11.4485 11.8991 11.3633 11.8653 11.288 11.7977L9.87392 10.3837C8.87078 11.2057 7.75808 11.5813 6.53603 11.5097C5.31386 11.438 4.25384 10.9375 3.35634 10.0097C2.49633 9.03667 2.07779 7.93877 2.10048 6.71669C2.12329 5.49476 2.58373 4.41657 3.48134 3.48134C4.41673 2.58366 5.49552 2.12317 6.71767 2.10048ZM6.80752 2.82509C5.67599 2.8553 4.7367 3.24335 3.99013 3.99012C3.24355 4.73692 2.85555 5.67622 2.82509 6.80751C2.85527 7.93904 3.24336 8.87831 3.99013 9.62489C4.73695 10.3714 5.67621 10.7604 6.80752 10.7909C7.93912 10.7607 8.87829 10.3717 9.6249 9.62489C10.3715 8.87805 10.7605 7.93887 10.7909 6.80751C10.7607 5.67598 10.3717 4.73669 9.6249 3.99012C8.87807 3.24369 7.93879 2.8555 6.80752 2.82509Z" fill="#222222"/>
<path d="M6.71767 2.10048L6.71213 1.80053L6.7121 1.80053L6.71767 2.10048ZM10.0097 3.35634L10.2185 3.1405L10.2083 3.13154L10.0097 3.35634ZM11.5097 6.53602L11.8092 6.51847L11.8091 6.51845L11.5097 6.53602ZM10.3837 9.87391L10.1516 9.68379L9.97945 9.89394L10.1716 10.086L10.3837 9.87391ZM11.7978 11.288L12.021 11.0876L12.0156 11.0816L12.0099 11.0758L11.7978 11.288ZM11.8993 11.5429L12.1993 11.5429L12.1993 11.5428L11.8993 11.5429ZM11.7919 11.7919L12.0044 12.0037L12.0044 12.0036L11.7919 11.7919ZM11.5429 11.8993L11.5421 12.1993L11.5422 12.1993L11.5429 11.8993ZM11.288 11.7977L11.0759 12.0099L11.0816 12.0156L11.0876 12.021L11.288 11.7977ZM9.87392 10.3837L10.0861 10.1715L9.89393 9.97942L9.68377 10.1516L9.87392 10.3837ZM6.53603 11.5097L6.51846 11.8091L6.51848 11.8091L6.53603 11.5097ZM3.35634 10.0097L3.13134 10.2085L3.14071 10.2182L3.35634 10.0097ZM2.10048 6.71669L1.80054 6.71109L1.80054 6.71112L2.10048 6.71669ZM3.48134 3.48134L3.27344 3.2647L3.2649 3.2736L3.48134 3.48134ZM6.80752 2.82509L6.81558 2.52519L6.80754 2.52498L6.79951 2.52519L6.80752 2.82509ZM3.99013 3.99012L3.77797 3.77802L3.77797 3.77802L3.99013 3.99012ZM2.82509 6.80751L2.5252 6.79943L2.52499 6.80747L2.5252 6.8155L2.82509 6.80751ZM3.99013 9.62489L3.77803 9.83705L3.77804 9.83706L3.99013 9.62489ZM6.80752 10.7909L6.79944 11.0908L6.80748 11.091L6.81551 11.0908L6.80752 10.7909ZM9.6249 9.62489L9.83706 9.837L9.83706 9.83699L9.6249 9.62489ZM10.7909 6.80751L11.0908 6.81557L11.091 6.80754L11.0908 6.7995L10.7909 6.80751ZM9.6249 3.99012L9.83699 3.77795L9.83698 3.77794L9.6249 3.99012ZM6.71767 2.10048L6.72321 2.40042C7.86503 2.37933 8.89054 2.76764 9.811 3.58113L10.0097 3.35634L10.2083 3.13154C9.18305 2.22542 8.01408 1.77647 6.71213 1.80053L6.71767 2.10048ZM10.0097 3.35634L9.80107 3.57195C10.6782 4.42056 11.1432 5.41125 11.2102 6.55359L11.5097 6.53602L11.8091 6.51845C11.7328 5.21703 11.1969 4.08752 10.2183 3.14072L10.0097 3.35634ZM11.5097 6.53602L11.2102 6.55358C11.2771 7.69516 10.929 8.73494 10.1516 9.68379L10.3837 9.87391L10.6158 10.064C11.4823 9.00632 11.8855 7.82021 11.8092 6.51847L11.5097 6.53602ZM10.3837 9.87391L10.1716 10.086L11.5856 11.5001L11.7978 11.288L12.0099 11.0758L10.5958 9.66178L10.3837 9.87391ZM11.7978 11.288L11.5745 11.4884C11.5966 11.513 11.5993 11.5281 11.5993 11.5429L11.8993 11.5429L12.1993 11.5428C12.1993 11.3694 12.1345 11.214 12.021 11.0876L11.7978 11.288ZM11.8993 11.5429H11.5993C11.5993 11.551 11.5998 11.5596 11.5794 11.5802L11.7919 11.7919L12.0044 12.0036C12.1273 11.8803 12.1993 11.7229 12.1993 11.5429H11.8993ZM11.7919 11.7919L11.5794 11.5801C11.5672 11.5923 11.5596 11.5961 11.5571 11.5971C11.555 11.598 11.5515 11.5993 11.5435 11.5993L11.5429 11.8993L11.5422 12.1993C11.7227 12.1997 11.8808 12.1276 12.0044 12.0037L11.7919 11.7919ZM11.5429 11.8993L11.5436 11.5993C11.5279 11.5993 11.5126 11.5962 11.4884 11.5745L11.288 11.7977L11.0876 12.021C11.214 12.1344 11.3691 12.1989 11.5421 12.1993L11.5429 11.8993ZM11.288 11.7977L11.5001 11.5856L10.0861 10.1715L9.87392 10.3837L9.66179 10.5958L11.0759 12.0099L11.288 11.7977ZM9.87392 10.3837L9.68377 10.1516C8.73509 10.9291 7.69557 11.2771 6.55358 11.2102L6.53603 11.5097L6.51848 11.8091C7.82059 11.8855 9.00647 11.4824 10.0641 10.6157L9.87392 10.3837ZM6.53603 11.5097L6.5536 11.2102C5.41097 11.1431 4.42037 10.6782 3.57198 9.80108L3.35634 10.0097L3.14071 10.2182C4.08731 11.1969 5.21676 11.7328 6.51846 11.8091L6.53603 11.5097ZM3.35634 10.0097L3.58112 9.81098C2.76748 8.89045 2.37923 7.86431 2.40043 6.72226L2.10048 6.71669L1.80054 6.71112C1.77636 8.01322 2.22518 9.18288 3.13156 10.2083L3.35634 10.0097ZM2.10048 6.71669L2.40043 6.72228C2.42173 5.58079 2.84892 4.57351 3.69778 3.68907L3.48134 3.48134L3.2649 3.2736C2.31853 4.25964 1.82484 5.40873 1.80054 6.71109L2.10048 6.71669ZM3.48134 3.48134L3.68907 3.69778C4.57363 2.84888 5.58151 2.42162 6.72324 2.40042L6.71767 2.10048L6.7121 1.80053C5.40954 1.82471 4.25982 2.31844 3.27362 3.26489L3.48134 3.48134ZM6.80752 2.82509L6.79951 2.52519C5.59737 2.5573 4.58306 2.97271 3.77797 3.77802L3.99013 3.99012L4.20229 4.20223C4.89035 3.51399 5.7546 3.15331 6.81552 3.12498L6.80752 2.82509ZM3.99013 3.99012L3.77797 3.77802C2.97291 4.58331 2.55755 5.59759 2.5252 6.79943L2.82509 6.80751L3.12499 6.81558C3.15354 5.75486 3.51419 4.89053 4.2023 4.20223L3.99013 3.99012ZM2.82509 6.80751L2.5252 6.8155C2.55726 8.01766 2.97273 9.03196 3.77803 9.83705L3.99013 9.62489L4.20224 9.41273C3.51399 8.72467 3.15328 7.86042 3.12499 6.79951L2.82509 6.80751ZM3.99013 9.62489L3.77804 9.83706C4.58321 10.6419 5.59736 11.0584 6.79944 11.0908L6.80752 10.7909L6.81559 10.491C5.75505 10.4625 4.89069 10.1009 4.20223 9.41272L3.99013 9.62489ZM6.80752 10.7909L6.81551 11.0908C8.01795 11.0587 9.03207 10.6422 9.83706 9.837L9.6249 9.62489L9.41274 9.41278C8.7245 10.1012 7.8603 10.4627 6.79952 10.491L6.80752 10.7909ZM9.6249 9.62489L9.83706 9.83699C10.642 9.0318 11.0585 8.01771 11.0908 6.81557L10.7909 6.80751L10.491 6.79944C10.4625 7.86003 10.101 8.7243 9.41274 9.41279L9.6249 9.62489ZM10.7909 6.80751L11.0908 6.7995C11.0587 5.59717 10.6422 4.58291 9.83699 3.77795L9.6249 3.99012L9.4128 4.20229C10.1012 4.89046 10.4627 5.75478 10.491 6.81551L10.7909 6.80751ZM9.6249 3.99012L9.83698 3.77794C9.03169 2.97307 8.01747 2.5575 6.81558 2.52519L6.80752 2.82509L6.79945 3.12498C7.86012 3.15349 8.72445 3.5143 9.41282 4.20231L9.6249 3.99012Z" fill="#222222" mask="url(#path-1-outside-1_4117_8107)"/>
</svg>
