<svg width="22" height="22" viewBox="0 0 22 22" fill="none" xmlns="http://www.w3.org/2000/svg">
<g clip-path="url(#clip0_4126_8211)">
<path d="M11.0002 11.0001C11.9495 11.0001 12.8776 10.7186 13.6669 10.1912C14.4563 9.66377 15.0715 8.91411 15.4348 8.03703C15.7981 7.15994 15.8932 6.19482 15.708 5.26372C15.5228 4.33261 15.0656 3.47733 14.3943 2.80604C13.723 2.13474 12.8677 1.67759 11.9366 1.49238C11.0055 1.30717 10.0404 1.40223 9.16332 1.76553C8.28623 2.12883 7.53657 2.74406 7.00914 3.53341C6.48171 4.32277 6.2002 5.2508 6.2002 6.20015C6.20147 7.4728 6.70759 8.69296 7.60749 9.59286C8.50739 10.4928 9.72755 10.9989 11.0002 11.0001ZM11.0002 3.00015C11.6331 3.00015 12.2518 3.18783 12.778 3.53945C13.3043 3.89107 13.7144 4.39084 13.9566 4.97556C14.1988 5.56029 14.2622 6.2037 14.1387 6.82444C14.0152 7.44518 13.7105 8.01536 13.2629 8.46289C12.8154 8.91042 12.2452 9.21519 11.6245 9.33866C11.0037 9.46213 10.3603 9.39876 9.77561 9.15656C9.19088 8.91436 8.69111 8.50421 8.33949 7.97797C7.98787 7.45174 7.8002 6.83305 7.8002 6.20015C7.8002 5.35146 8.13734 4.53752 8.73745 3.93741C9.33757 3.33729 10.1515 3.00015 11.0002 3.00015V3.00015Z" fill="#FFBE0A"/>
<path d="M11.0008 12.6006C9.09187 12.6027 7.26175 13.362 5.91195 14.7118C4.56215 16.0616 3.8029 17.8917 3.80078 19.8006C3.80078 20.0128 3.88507 20.2162 4.0351 20.3663C4.18512 20.5163 4.38861 20.6006 4.60078 20.6006C4.81295 20.6006 5.01644 20.5163 5.16647 20.3663C5.3165 20.2162 5.40078 20.0128 5.40078 19.8006C5.40078 18.3154 5.99078 16.891 7.04098 15.8408C8.09119 14.7906 9.51557 14.2006 11.0008 14.2006C12.486 14.2006 13.9104 14.7906 14.9606 15.8408C16.0108 16.891 16.6008 18.3154 16.6008 19.8006C16.6008 20.0128 16.6851 20.2162 16.8351 20.3663C16.9851 20.5163 17.1886 20.6006 17.4008 20.6006C17.613 20.6006 17.8164 20.5163 17.9665 20.3663C18.1165 20.2162 18.2008 20.0128 18.2008 19.8006C18.1987 17.8917 17.4394 16.0616 16.0896 14.7118C14.7398 13.362 12.9097 12.6027 11.0008 12.6006V12.6006Z" fill="#FFBE0A"/>
</g>
<defs>
<clipPath id="clip0_4126_8211">
<rect width="19.2" height="19.2" fill="white" transform="translate(1.40039 1.40015)"/>
</clipPath>
</defs>
</svg>
